<?xml version="1.0" encoding="UTF-8"?>
<svg id="Layer_1" xmlns="http://www.w3.org/2000/svg" version="1.1" viewBox="0 0 24 24">
  <!-- Generator: Adobe Illustrator 30.2.1, SVG Export Plug-In . SVG Version: 2.1.1 Build 1)  -->
  <defs>
    <style>
      .st0 {
        fill: #fff;
        fill-rule: evenodd;
      }
    </style>
  </defs>
  <path class="st0" d="M23.998,1.669l-5.087,8.981-.031.054-2.365,4.174-2.904-5.122,3.381-5.948.003-.003c.046-.089.097-.178.15-.262v-.003l.003-.003c.872-1.431,2.422-2.404,4.205-2.472.068-.003.137-.003.204-.003s.135,0,.204.003c.808.031,1.568.249,2.238.61v-.003l-.002-.002Z"/>
  <path class="st0" d="M15.11,2.058l-2.917,5.13h-7.074c-1.689,0-3.26-.833-4.21-2.208-.007-.01-.015-.021-.021-.03-.015-.021-.028-.041-.041-.063-.064-.096-.122-.193-.18-.294l-.053-.094c-.391-.721-.613-1.545-.613-2.422v-.02h15.11Z"/>
  <path class="st0" d="M14.968,18.51c0,1.9-1.042,3.555-2.587,4.429l-5.008-8.845-2.462-4.347h5.836l3.517,6.182s.003.008.007.01l.035.061c.125.221.234.449.323.683.005.013.01.026.015.04.209.556.325,1.159.325,1.789v-.002Z"/>
</svg>