<svg width="21" height="20" viewBox="0 0 21 20" fill="none" xmlns="http://www.w3.org/2000/svg">
  <path fill-rule="evenodd" clip-rule="evenodd" d="M21 0.560977L16.5477 8.76685L16.5208 8.81768L14.4511 12.632L11.9095 7.94989L14.8675 2.51441L14.8692 2.51078C14.9101 2.42908 14.9544 2.3492 14.9996 2.27114L15.0005 2.26932L15.0031 2.26569C15.7672 0.956747 17.1232 0.067172 18.6835 0.00363092C18.7426 0.000907729 18.8026 0 18.8625 0C18.9225 0 18.9825 0.000907729 19.0416 0.00363092C19.7483 0.0326783 20.4133 0.230563 21 0.560977Z" fill="rgb(255, 102, 0)"/>
  <path fill-rule="evenodd" clip-rule="evenodd" d="M13.2212 0.917714L10.6691 5.60614H4.47833C2.99975 5.60614 1.62548 4.84455 0.794486 3.58825C0.788402 3.57918 0.782317 3.5701 0.776232 3.56102C0.764063 3.54196 0.751893 3.5229 0.739724 3.50383C0.684962 3.41669 0.631938 3.32774 0.582392 3.23606L0.535452 3.14982C0.193841 2.49081 0 1.73739 0 0.935869V0.918622H13.222L13.2212 0.917714Z" fill="rgb(255, 102, 0)"/>
  <path fill-rule="evenodd" clip-rule="evenodd" d="M13.0969 15.9533C13.0969 17.6898 12.185 19.203 10.8334 20L4.29579 7.94354H9.40171L12.4806 13.5932C12.4823 13.5969 12.484 13.5996 12.4858 13.6032L12.5162 13.6595C12.6266 13.8619 12.7205 14.0698 12.7996 14.2831C12.8039 14.2949 12.8083 14.3076 12.8126 14.3194C12.996 14.8278 13.096 15.3787 13.096 15.9542L13.0969 15.9533Z" fill="rgb(255, 102, 0)"/>
</svg>
